<svg xmlns="http://www.w3.org/2000/svg" xmlns:xlink="http://www.w3.org/1999/xlink" width="1024" height="304" viewBox="0 0 1024 304">
  <defs>
    <clipPath id="clip-path">
      <rect id="Rectangle_4407" data-name="Rectangle 4407" width="1024" height="304" rx="16" transform="translate(208 4384)" fill="#c1f5f6"/>
    </clipPath>
    <clipPath id="clip-path-2">
      <path id="Path_16279" data-name="Path 16279" d="M-879.159,257.171c-1,3.062-1,3.6-1,3.062l.033-87.5c0-.534-.033-.451-.033-63.807H-683.4l.026,148.237Z" transform="translate(880.161 -108.928)" fill="none"/>
    </clipPath>
  </defs>
  <g id="Video-explanation" transform="translate(-208 -6080)">
    <rect id="Rectangle_4103" data-name="Rectangle 4103" width="1024" height="304" rx="16" transform="translate(208 6080)" fill="#c1f5f6"/>
    <g id="Mask_Group_540" data-name="Mask Group 540" transform="translate(0 1696)" clip-path="url(#clip-path)">
      <path id="Path_16280" data-name="Path 16280" d="M-10277-153s124.753-181.006,280-144,199.544,205.336,440,176,216.265-182.7,376-184,88,296,88,296-1074.97,133-1160,8S-10277-153-10277-153Z" transform="translate(10437 4729)" fill="#d6f9f8"/>
    </g>
    <g id="Group_18981" data-name="Group 18981" transform="translate(1521.941 5985.617)">
      <ellipse id="Ellipse_156" data-name="Ellipse 156" cx="133.552" cy="6.889" rx="133.552" ry="6.889" transform="translate(-935.216 369.605)" fill="#7cecec"/>
      <path id="Rectangle_4399" data-name="Rectangle 4399" d="M15.922,0H161.306a15.922,15.922,0,0,1,15.922,15.922v3.325a0,0,0,0,1,0,0H0a0,0,0,0,1,0,0V15.922A15.922,15.922,0,0,1,15.922,0Z" transform="translate(-890.278 357.21)" fill="#fff"/>
      <rect id="Rectangle_4400" data-name="Rectangle 4400" width="64.242" height="41.243" transform="translate(-833.785 315.967)" fill="#fff"/>
      <path id="Path_16207" data-name="Path 16207" d="M-799.654,393.981l64.242-5.143.01-7.521H-799.57Z" transform="translate(-34.136 -65.349)" fill="#7cecec"/>
      <path id="Path_16208" data-name="Path 16208" d="M-661.388,154.543V316.279a8.584,8.584,0,0,1-8.584,8.584H-933.356a8.584,8.584,0,0,1-8.584-8.584V154.543a8.584,8.584,0,0,1,8.584-8.584h263.385c.128,0,.255,0,.382.008.093,0,.186.009.278.017h.011c.066,0,.132.011.2.019.111.008.22.024.331.039.073.008.144.019.216.034.034,0,.068.011.1.017.071.011.139.024.21.041A8.586,8.586,0,0,1-661.388,154.543Z" transform="translate(0 -8.884)" fill="#fff"/>
      <path id="Path_16209" data-name="Path 16209" d="M-668.242,146.135c-.071-.017-.139-.03-.21-.041-.034-.006-.068-.012-.1-.017-.072-.015-.143-.026-.216-.034-.111-.015-.22-.03-.331-.039-.067-.008-.133-.014-.2-.019h-.011c-.092-.008-.185-.013-.278-.017-.126-.006-.253-.008-.382-.008H-933.356a8.584,8.584,0,0,0-8.584,8.584V304.318h280.552V154.543A8.586,8.586,0,0,0-668.242,146.135Zm-4.273,143.223a2.334,2.334,0,0,1-2.335,2.335H-928.477a2.334,2.334,0,0,1-2.335-2.335V159.422a2.334,2.334,0,0,1,2.335-2.335H-674.85a2.334,2.334,0,0,1,2.335,2.335Z" transform="translate(0 -8.884)" fill="#00babe"/>
      <rect id="Rectangle_4401" data-name="Rectangle 4401" width="258.297" height="134.605" rx="3.072" transform="translate(-930.812 148.203)" fill="#c1f5f6"/>
      <path id="Path_16210" data-name="Path 16210" d="M-669,162.934V175.2H-927.3V162.934a2.334,2.334,0,0,1,2.335-2.335h253.627A2.334,2.334,0,0,1-669,162.934Z" transform="translate(-3.512 -12.396)" fill="#fff"/>
      <path id="Path_16211" data-name="Path 16211" d="M-615.048,169.318a1.983,1.983,0,0,1-1.984,1.983,1.983,1.983,0,0,1-1.983-1.983,1.984,1.984,0,0,1,1.983-1.984A1.984,1.984,0,0,1-615.048,169.318Z" transform="translate(-77.474 -14.012)" fill="#00babe"/>
      <circle id="Ellipse_157" data-name="Ellipse 157" cx="1.983" cy="1.983" r="1.983" transform="translate(-690.061 153.322)" fill="#00babe"/>
      <circle id="Ellipse_158" data-name="Ellipse 158" cx="1.983" cy="1.983" r="1.983" transform="translate(-683.535 153.322)" fill="#00878a"/>
      <rect id="Rectangle_4402" data-name="Rectangle 4402" width="199.21" height="111.821" rx="6.422" transform="translate(-901.615 165.759)" fill="#fff"/>
      <path id="Path_16212" data-name="Path 16212" d="M-827.2,258.2h-43.677a1.213,1.213,0,0,1-1.213-1.214h0a1.213,1.213,0,0,1,1.213-1.213H-827.2a1.213,1.213,0,0,1,1.213,1.213h0A1.213,1.213,0,0,1-827.2,258.2Z" transform="translate(-16.759 -35.231)" fill="#7cecec"/>
      <path id="Path_16213" data-name="Path 16213" d="M-827.2,244.7h-43.677a1.213,1.213,0,0,1-1.213-1.213h0a1.213,1.213,0,0,1,1.213-1.213H-827.2a1.213,1.213,0,0,1,1.213,1.213h0A1.213,1.213,0,0,1-827.2,244.7Z" transform="translate(-16.759 -31.991)" fill="#7cecec"/>
      <path id="Path_16214" data-name="Path 16214" d="M-827.2,271.711h-43.677a1.213,1.213,0,0,1-1.213-1.213h0a1.213,1.213,0,0,1,1.213-1.214H-827.2a1.213,1.213,0,0,1,1.213,1.214h0A1.213,1.213,0,0,1-827.2,271.711Z" transform="translate(-16.759 -38.471)" fill="#7cecec"/>
      <path id="Path_16215" data-name="Path 16215" d="M-650.632,258.2h-43.677a1.214,1.214,0,0,1-1.213-1.214h0a1.214,1.214,0,0,1,1.213-1.213h43.677a1.213,1.213,0,0,1,1.213,1.213h0A1.213,1.213,0,0,1-650.632,258.2Z" transform="translate(-59.119 -35.231)" fill="#7cecec"/>
      <path id="Path_16216" data-name="Path 16216" d="M-650.632,244.7h-43.677a1.213,1.213,0,0,1-1.213-1.213h0a1.213,1.213,0,0,1,1.213-1.213h43.677a1.213,1.213,0,0,1,1.213,1.213h0A1.213,1.213,0,0,1-650.632,244.7Z" transform="translate(-59.119 -31.991)" fill="#7cecec"/>
      <path id="Path_16217" data-name="Path 16217" d="M-650.632,271.711h-43.677a1.214,1.214,0,0,1-1.213-1.213h0a1.214,1.214,0,0,1,1.213-1.214h43.677a1.213,1.213,0,0,1,1.213,1.214h0A1.213,1.213,0,0,1-650.632,271.711Z" transform="translate(-59.119 -38.471)" fill="#7cecec"/>
      <path id="Path_16218" data-name="Path 16218" d="M-888.887,307.966h199.21V324.3a1.034,1.034,0,0,1-1.034,1.032H-887.853a1.034,1.034,0,0,1-1.034-1.032Z" transform="translate(-12.728 -47.752)" fill="#00babe"/>
      <path id="Path_16219" data-name="Path 16219" d="M-652.956,315.557v-1.472h1.842v-1.31h-2.5a.655.655,0,0,0-.655.654v2.127Z" transform="translate(-69.016 -48.905)" fill="#fff"/>
      <path id="Path_16220" data-name="Path 16220" d="M-652.956,319.882h-1.31v2.239a.655.655,0,0,0,.655.655h2.5v-1.31h-1.842Z" transform="translate(-69.016 -50.61)" fill="#fff"/>
      <path id="Path_16221" data-name="Path 16221" d="M-645.625,315.557h1.31v-2.127a.655.655,0,0,0-.654-.654h-2.4v1.31h1.747Z" transform="translate(-70.67 -48.905)" fill="#fff"/>
      <path id="Path_16222" data-name="Path 16222" d="M-645.625,319.882v1.584h-1.747v1.31h2.4a.655.655,0,0,0,.654-.655v-2.239Z" transform="translate(-70.67 -50.61)" fill="#fff"/>
      <path id="Path_16223" data-name="Path 16223" d="M-873.62,317.3V313.16l3.583,2.069,3.583,2.069-3.583,2.069-3.583,2.069Z" transform="translate(-16.391 -48.998)" fill="#fff"/>
      <rect id="Rectangle_4403" data-name="Rectangle 4403" width="2.221" height="7.532" rx="0.841" transform="translate(-871.728 264.578)" fill="#fff"/>
      <rect id="Rectangle_4404" data-name="Rectangle 4404" width="2.221" height="7.532" rx="0.841" transform="translate(-867.088 264.578)" fill="#fff"/>
      <path id="Path_16224" data-name="Path 16224" d="M-668.708,286.955h2.248v4.923h3.009v1.743h-5.257Z" transform="translate(-65.552 -42.711)" fill="#002726"/>
      <path id="Path_16225" data-name="Path 16225" d="M-660.978,286.955h2.247v6.666h-2.247Z" transform="translate(-67.406 -42.711)" fill="#002726"/>
      <path id="Path_16226" data-name="Path 16226" d="M-649.7,286.955l-2.819,6.666h-2.209l-2.819-6.666h2.419l1.591,3.895,1.628-3.895Z" transform="translate(-68.229 -42.711)" fill="#002726"/>
      <path id="Path_16227" data-name="Path 16227" d="M-641.393,291.926v1.7h-5.542v-6.666h5.419v1.7h-3.21v.781h2.819v1.619h-2.819v.876Z" transform="translate(-70.775 -42.711)" fill="#002726"/>
      <path id="Path_16228" data-name="Path 16228" d="M-675.306,290.4a2.741,2.741,0,0,1-2.741,2.741,2.741,2.741,0,0,1-2.741-2.741,2.741,2.741,0,0,1,2.741-2.741A2.74,2.74,0,0,1-675.306,290.4Z" transform="translate(-62.653 -42.881)" fill="#ff6475"/>
      <path id="Path_16229" data-name="Path 16229" d="M-859.092,291.915c0,1.522-1.443,2.507-3.513,2.507s-3.513-.985-3.513-2.507a2.045,2.045,0,0,1,1.051-1.8,1.908,1.908,0,0,1-.772-1.544c0-1.421,1.331-2.338,3.233-2.338s3.233.917,3.233,2.338a1.909,1.909,0,0,1-.772,1.544A2.044,2.044,0,0,1-859.092,291.915Zm-2.652-.089a.793.793,0,0,0-.861-.817.794.794,0,0,0-.862.817.793.793,0,0,0,.862.816A.793.793,0,0,0-861.744,291.826Zm-1.487-3.145a.612.612,0,0,0,.626.672.612.612,0,0,0,.626-.672.612.612,0,0,0-.626-.671A.612.612,0,0,0-863.231,288.682Z" transform="translate(-18.191 -42.537)" fill="#002726"/>
      <path id="Path_16230" data-name="Path 16230" d="M-706.79,243.892s3.008,13.245,3.008,46.55c-17.808,1.243-21.225-.621-21.225-.621l.725-9.918,6.937-32.018Z" transform="translate(-52.045 -32.379)" fill="#c1f5f6"/>
      <path id="Path_16231" data-name="Path 16231" d="M-856.228,290.327c0-2.6,1.477-4.095,3.547-4.095s3.546,1.5,3.546,4.095-1.477,4.1-3.546,4.1S-856.228,292.922-856.228,290.327Zm4.442,0c0-1.51-.38-1.98-.895-1.98s-.9.47-.9,1.98.38,1.981.9,1.981S-851.786,291.838-851.786,290.327Z" transform="translate(-20.563 -42.537)" fill="#002726"/>
      <path id="Path_16232" data-name="Path 16232" d="M-873.678,287.966a2.407,2.407,0,0,1-2.407,2.407,2.407,2.407,0,0,1-2.407-2.407,2.407,2.407,0,0,1,2.407-2.407A2.407,2.407,0,0,1-873.678,287.966Z" transform="translate(-15.222 -42.376)" fill="#ff6475"/>
      <path id="Path_16233" data-name="Path 16233" d="M-872.245,295.839h-9a4.656,4.656,0,0,1,4.432-2.86l.068,0,.068,0A4.658,4.658,0,0,1-872.245,295.839Z" transform="translate(-14.561 -44.156)" fill="#ff6475"/>
      <g id="Group_18980" data-name="Group 18980" transform="translate(-894.983 108.928)">
        <g id="Group_18979" data-name="Group 18979" clip-path="url(#clip-path-2)">
          <path id="Path_16234" data-name="Path 16234" d="M-835.519,210.936l21.081,15.572,17.455-32.6,6.29,1.4-3.451,14.771L-807.949,228.3l-10.354,6.626-9.94-6.488-7.041-14.219Z" transform="translate(869.451 -129.315)" fill="#c1f5f6"/>
          <path id="Path_16235" data-name="Path 16235" d="M-845.88,212.456s-1.2,7.344-6.613,8.66c-4.367,1.06-8.484-3.135-9.907-4.786-.341-.4-.526-.645-.526-.645a7.441,7.441,0,0,1-.81.027c-1.139-.015-3.163-.248-3.955-1.648-1.13-2,2.981-3.358,2.981-3.358s-2.108-1.882-1.58-3.251c.521-1.345,3.347-1.627,3.347-1.627s-3.044-1.976-2.025-3.7c1.532-2.592,4.682.26,4.933.417-.2-.227-4.143-4.309-1.985-5.043,1.884-.641,4.982,1.479,7.019,3.58.324.332.506.525.506.525s.122-.093.337-.236c1.019-.682,4.146-2.507,6.138-.842C-845.611,202.538-845.88,212.456-845.88,212.456Z" transform="translate(877.217 -130.15)" fill="#c97400"/>
          <path id="Path_16236" data-name="Path 16236" d="M-847.8,220.2a.43.43,0,0,1-.428-.03.429.429,0,0,1-.117-.6,3.862,3.862,0,0,0,.654-3.215c-.714-2.75-4.392-4.652-4.428-4.672a.428.428,0,0,1-.188-.577.429.429,0,0,1,.577-.188c.166.084,4.061,2.1,4.871,5.221a4.689,4.689,0,0,1-.773,3.909A.437.437,0,0,1-847.8,220.2Z" transform="translate(873.489 -133.387)" fill="#002726"/>
          <path id="Path_16237" data-name="Path 16237" d="M-853.969,208.6a1.336,1.336,0,0,1-.606,1.17,1.519,1.519,0,0,1-.279.141,3.146,3.146,0,0,1-.774.175,3.066,3.066,0,0,1,.551.448,1.485,1.485,0,0,1,.331.5,1.122,1.122,0,0,1-.19,1.083c-.69.913-2.279,1.286-3.575,1.439a4.535,4.535,0,0,1,2,2.033,1.344,1.344,0,0,1-.166,1.309,2.55,2.55,0,0,1-.93.683,14.081,14.081,0,0,1-3.483.964c-.343-.4-.527-.646-.527-.646a7.331,7.331,0,0,1-.813.029.421.421,0,0,1,.224-.09c1.589-.185,4.31-.743,4.846-1.455a.494.494,0,0,0,.042-.505,5.149,5.149,0,0,0-3.172-2.235.421.421,0,0,1-.323-.468.424.424,0,0,1,.431-.376c1.061.02,3.981-.162,4.759-1.2.113-.15.084-.232.067-.274a1.432,1.432,0,0,0-.65-.6,10.584,10.584,0,0,0-2.542-.955.41.41,0,0,1-.221-.135.418.418,0,0,1-.1-.382.431.431,0,0,1,.52-.318c.148.035.455.112.838.232a9.611,9.611,0,0,0,1.941.071,1.707,1.707,0,0,0,.727-.2.491.491,0,0,0,.214-.458,2.739,2.739,0,0,0-.462-1.3.421.421,0,0,1,.036-.48.05.05,0,0,0,.009-.011.42.42,0,0,1,.692.044A3.605,3.605,0,0,1-853.969,208.6Z" transform="translate(875.907 -132.37)" fill="#002726"/>
          <path id="Path_16238" data-name="Path 16238" d="M-857.227,188.356a11.753,11.753,0,0,1,2.011,1.478c.611.581,1,.875,1.414,1.259h0l-8.252-35.01a.424.424,0,0,0-.831.17l5.657,32.1Z" transform="translate(876.018 -120.162)" fill="#57abff"/>
          <path id="Path_16239" data-name="Path 16239" d="M-847.737,220.775c-2.86,1.845-3.663.48-3.663.48l-1.449-8.223c.042-.044.081-.093.119-.141a1.122,1.122,0,0,0,.19-1.083,1.485,1.485,0,0,0-.331-.5,2.535,2.535,0,0,0-.334-.294l-.03-.179a3,3,0,0,0,.588-.15,1.516,1.516,0,0,0,.279-.141,1.264,1.264,0,0,0,.531-.694,2.128,2.128,0,0,0,1.286.577,2.912,2.912,0,0,0,.416.013Z" transform="translate(873.701 -133.139)" fill="#57abff"/>
          <path id="Path_16240" data-name="Path 16240" d="M-845.091,206.114a14.169,14.169,0,0,1-2.818,1.892,4.826,4.826,0,0,1-2.485.594,2.142,2.142,0,0,1-1.553-.878c-1.361-1.827-.2-4.215.62-5.475.324.332.506.525.506.525s.122-.093.337-.236c-.7,1.038-1.879,3.192-.775,4.672a1.291,1.291,0,0,0,.953.537c1.514.16,3.867-1.588,4.646-2.274a.426.426,0,0,1,.6.037A.43.43,0,0,1-845.091,206.114Z" transform="translate(873.542 -131.316)" fill="#002726"/>
          <path id="Path_16241" data-name="Path 16241" d="M-801.2,196.154l0-.015s0-.017,0,0l-.01.047-.022.1-.052.252-.114.558q-.058.285-.125.582c-.042.2-.087.394-.135.594-.182.8-.382,1.614-.6,2.426-.445,1.625-.917,3.259-1.469,4.867s-1.123,3.207-1.775,4.769c-.331.778-.657,1.557-1.012,2.321-.334.775-.707,1.525-1.066,2.284-.753,1.5-1.539,2.968-2.391,4.389-.2.363-.428.707-.642,1.06s-.425.709-.657,1.047c-.458.683-.9,1.377-1.381,2.038-.927,1.351-1.95,2.613-2.97,3.871-1.059,1.22-2.133,2.425-3.283,3.541-.287.28-.568.567-.857.843l-.89.8-.444.4-.111.1.057-.052.078-.065a3.018,3.018,0,0,1,.331-.234,5.211,5.211,0,0,1,1.6-.741c.138-.035.251-.073.381-.1.064-.012.128-.021.192-.029l.16-.027a2.719,2.719,0,0,1,.319-.024,1.823,1.823,0,0,1,.249-.01c.039,0,.09.008.118.006s.059,0,.088,0a1.6,1.6,0,0,1,.168.02.537.537,0,0,1,.1.013l.049.014a.093.093,0,0,1,.021,0c.125.04-.124,0-.5-.161a12.528,12.528,0,0,1-1.43-.748c-.55-.326-1.144-.719-1.753-1.153-1.224-.863-2.505-1.9-3.789-3s-2.575-2.292-3.857-3.522-2.57-2.5-3.834-3.8-2.536-2.628-3.781-3.975q-.942-1-1.865-2.022l-1.792-1.963-13.851,10.39.461.7.438.647.874,1.27q.886,1.254,1.789,2.485c1.217,1.636,2.463,3.254,3.758,4.848s2.638,3.166,4.04,4.721c.7.775,1.419,1.548,2.157,2.314s1.5,1.525,2.278,2.28a64.091,64.091,0,0,0,5.1,4.454c.939.726,1.928,1.446,3.014,2.153a30.653,30.653,0,0,0,3.646,2.053,22.085,22.085,0,0,0,4.985,1.7l.376.076c.131.024.272.044.407.065.274.042.549.079.823.113s.594.052.892.071l.45.024c.148.008.321,0,.48,0q.488,0,.975-.026c.341-.024.693-.062,1.038-.1.174-.022.344-.043.521-.072s.364-.068.546-.106c.365-.079.719-.153,1.086-.261a14.966,14.966,0,0,0,4.218-1.965c.309-.217.61-.442.907-.675l.221-.176.2-.163.159-.141.635-.566,1.267-1.135c.413-.387.816-.786,1.223-1.179,1.637-1.567,3.142-3.254,4.607-4.963,1.427-1.737,2.8-3.514,4.053-5.362,1.278-1.833,2.425-3.737,3.518-5.66l.794-1.456c.262-.486.5-.981.753-1.472s.5-.983.727-1.481l.7-1.491a80.831,80.831,0,0,0,4.4-12.3c.556-2.1,1.055-4.212,1.438-6.366.192-1.078.373-2.159.518-3.268.037-.274.071-.554.1-.836s.066-.562.1-.851.059-.582.086-.879l.08-1.057Z" transform="translate(873.823 -129.849)" fill="#c1f5f6"/>
          <path id="Path_16242" data-name="Path 16242" d="M-808.869,246.367a.511.511,0,0,0,.495-.387,38.413,38.413,0,0,0,.831-8.844.51.51,0,0,0-.524-.5.509.509,0,0,0-.5.524,38.187,38.187,0,0,1-.8,8.569.509.509,0,0,0,.371.619A.531.531,0,0,0-808.869,246.367Z" transform="translate(863.18 -139.567)" fill="#002726"/>
          <path id="Path_16243" data-name="Path 16243" d="M-805.344,242.886a.507.507,0,0,0,.227-.054.51.51,0,0,0,.229-.684,41.392,41.392,0,0,0-2.5-4.421.511.511,0,0,0-.717-.083.511.511,0,0,0-.083.717A42,42,0,0,1-805.8,242.6.509.509,0,0,0-805.344,242.886Z" transform="translate(862.92 -139.782)" fill="#002726"/>
          <path id="Path_16244" data-name="Path 16244" d="M-776.171,376.9l6.914-40.8.566-3.335-19.9-7.025-1.136-.4-4.74-1.672s-.379,1.745-.968,4.746q-.106.543-.221,1.141c-1.867,9.649-5.369,29.538-6.322,47.35Z" transform="translate(861.405 -160.447)" fill="#363638"/>
          <path id="Path_16245" data-name="Path 16245" d="M-786.862,198.167s-6.086,55.748-5.749,81.469h61.632s7.651-22.987,8.312-55.493a50.863,50.863,0,0,0-16.457-24.774Z" transform="translate(859.16 -130.338)" fill="#c1f5f6"/>
          <path id="Path_16246" data-name="Path 16246" d="M-773.013,380.434c2.991-16.27,6.836-40.045,7.059-41.432a.539.539,0,0,0-.445-.616.537.537,0,0,0-.616.445c-.055.342-4.046,25.024-7.095,41.6Z" transform="translate(854.718 -163.976)" fill="#575759"/>
          <path id="Path_16247" data-name="Path 16247" d="M-733.558,303.049s1.5,14.211-1.735,22.122-45.086,3.84-55.753-3.281c-4.375-2.92,4.943-29.871,4.943-29.871Z" transform="translate(859.062 -152.854)" fill="#363638"/>
          <path id="Path_16248" data-name="Path 16248" d="M-793.662,326.211a12.224,12.224,0,0,0,1.852-.477,12.411,12.411,0,0,0,2.753-1.332A14.536,14.536,0,0,0-786.6,322.4c4.614-4.655,5.972-11.69,6.037-12.034a.541.541,0,0,0-.43-.628.54.54,0,0,0-.627.43c-.015.084-1.429,7.4-6.114,11.829a12.9,12.9,0,0,1-1.91,1.507,11.385,11.385,0,0,1-2.628,1.253,11.211,11.211,0,0,1-1.169.313C-793.511,325.431-793.587,325.812-793.662,326.211Z" transform="translate(859.409 -157.102)" fill="#575759"/>
          <path id="Path_16249" data-name="Path 16249" d="M-759.688,327.766a.529.529,0,0,0,.508.544h0a.528.528,0,0,0,.562-.492c.095-1.943.209-3.933.334-5.92q.033-.524.068-1.049c.423-6.495.959-12.871,1.364-17.372.033-.364.065-.717.1-1.057.09-.988.172-1.864.242-2.606-.357-.055-.712-.113-1.064-.173-.07.742-.152,1.627-.243,2.625-.032.339-.062.692-.1,1.056-.4,4.462-.934,10.783-1.357,17.238-.024.356-.046.714-.071,1.069C-759.471,323.691-759.589,325.755-759.688,327.766Z" transform="translate(851.258 -154.683)" fill="#575759"/>
          <path id="Path_16250" data-name="Path 16250" d="M-761.8,321.115a14.018,14.018,0,0,0,1.877.718,10.761,10.761,0,0,0,1.061.268,7.565,7.565,0,0,0,1.017.132,3.7,3.7,0,0,0,1.8-.282,2.2,2.2,0,0,0,1.223-1.641c.391-2,1.211-10.276,1.763-16.128.035-.36.068-.711.1-1.052.087-.936.166-1.788.232-2.511-.355-.043-.712-.086-1.069-.133-.067.727-.145,1.589-.236,2.537q-.048.508-.1,1.052c-.553,5.837-1.37,14.1-1.749,16.039a1.156,1.156,0,0,1-.648.907,3.8,3.8,0,0,1-2.27.03c-.361-.079-.721-.18-1.058-.288a12.942,12.942,0,0,1-1.474-.578.544.544,0,0,0-.719.233A.513.513,0,0,0-761.8,321.115Z" transform="translate(851.836 -154.885)" fill="#575759"/>
          <path id="Path_16251" data-name="Path 16251" d="M-730.055,375.66c1.655-15.145,3.57-35.409,4.652-47.151.036-.368.067-.723.1-1.074.477-5.18.771-8.443.771-8.443-2.568-1.07-7.226-.334-12.181,1.072-.359.1-.717.2-1.078.312a148.151,148.151,0,0,0-18.138,7.091V375.66Z" transform="translate(850.357 -159.202)" fill="#363638"/>
          <path id="Path_16252" data-name="Path 16252" d="M-725.557,380.434c1.431-16.836,3.125-41.161,3.148-41.48a.537.537,0,0,0-.5-.575.538.538,0,0,0-.572.5c-.023.32-1.723,24.734-3.154,41.555Z" transform="translate(843.328 -163.976)" fill="#575759"/>
          <path id="Path_16253" data-name="Path 16253" d="M-735.976,310.363a28.192,28.192,0,0,0,2.968,7.912,17.346,17.346,0,0,0,5.527,6.127,12.574,12.574,0,0,0,6.864,2.007c.034-.368.066-.724.1-1.075a11.56,11.56,0,0,1-6.38-1.836,16.087,16.087,0,0,1-5.031-5.535,27.669,27.669,0,0,1-2.989-7.8.538.538,0,0,0-.625-.432A.541.541,0,0,0-735.976,310.363Z" transform="translate(845.571 -157.102)" fill="#575759"/>
          <path id="Path_16254" data-name="Path 16254" d="M-792.607,274.472c11.586,10.815,38.984,16.565,60.1,6.282,2.317-6.331,4.864-28.924,5.546-35.678.138-1.345.247-2.69.336-4.037a177.277,177.277,0,0,0,.022-19.831c-.018-.372-.036-.743-.053-1.117-.276-5.615-.689-11.441-1.079-17.623-.771-12.241-4.857-19.784-11.955-20.913a28.951,28.951,0,0,1-7.836-2.363c-.236-.111-.458-.22-.674-.331a22.19,22.19,0,0,1-3.585-2.218h-15.832a12.069,12.069,0,0,1-4.928,4.119c-.2.1-.411.191-.62.282-5.62,2.425-12.173,1.943-13.524,8.721-.85,4.255,2.409,13.009,2.067,30.757q-.037,1.954-.135,4.052-.094,1.968-.249,4.068c-.095,1.3-.213,2.65-.351,4.033q-.18,1.816-.411,3.727-.236,1.961-.531,4.019C-787.352,247.8-790.179,264.987-792.607,274.472Z" transform="translate(859.156 -125.174)" fill="#c1f5f6"/>
          <path id="Path_16255" data-name="Path 16255" d="M-755.709,308.515a1.2,1.2,0,0,0,1.292,1.088,1.2,1.2,0,0,0,1.088-1.292,1.2,1.2,0,0,0-1.292-1.088A1.194,1.194,0,0,0-755.709,308.515Z" transform="translate(850.305 -156.5)" fill="#dc7f21"/>
          <path id="Path_16256" data-name="Path 16256" d="M-746.75,122.3c-2.953-1.91-12.242-2.869-12.242-2.869s-1.53-4.017-3.252-5.165c-3.915-2.61-4.4,2.678-4.4,2.678s-3.826-5.356-7.268-3.826.956,6.5.956,6.5-5.165-.956-4.591,3.443,5.547,6.313,5.547,6.313a9.651,9.651,0,0,0-.765,6.5c.765,4.017,2.487,4.209,2.487,4.209L-748.854,142s4.4,0,5.547-5.547-2.679-7.843-2.679-7.843S-743.5,124.405-746.75,122.3Z" transform="translate(855.553 -109.868)" fill="#002726"/>
          <path id="Path_16257" data-name="Path 16257" d="M-760.039,169.966v4.025a12.532,12.532,0,0,0,1.424,1c6.988,4.2,14.527-1,14.527-1V160.037l-14.049,8.745Z" transform="translate(851.342 -121.19)" fill="#c97400"/>
          <path id="Path_16258" data-name="Path 16258" d="M-760.039,171.856V176a12.534,12.534,0,0,0,1.424,1c5.95-2.356,10.281-8.6,10.281-8.6l-9.8,2.392Z" transform="translate(851.342 -123.195)" fill="#002726"/>
          <path id="Path_16259" data-name="Path 16259" d="M-769.863,154.12s-.012,8.321,8.643,8.3c8.6-.016,14.462-6.771,14.767-7.083l.009-.008.094-1.748.489-9.077.262-4.851s1.1-8.736-7.2-10.329c-6.065-1.164-11.753-.157-14.623,3.008-.093.1-.182.207-.267.314a7.456,7.456,0,0,0-1.633,4.068l-.268,8.714-.066,2.135Z" transform="translate(853.699 -113.709)" fill="#c97400"/>
          <path id="Path_16260" data-name="Path 16260" d="M-755.8,155.709s-5.28,1.063-7.948.824c0,0,.993,3.93,4.922,2.938A3.935,3.935,0,0,0-755.8,155.709Z" transform="translate(852.232 -120.151)" fill="#fff"/>
          <path id="Path_16261" data-name="Path 16261" d="M-767.007,132.647c1.358-.48,2.338-.033,4.453.9,3.059,1.343,6.478.134,9.5-1.411s4.835.605,3.805,2.015-.917,2.552.224,4.35-2.159,2.634-.336,4.044a1.868,1.868,0,0,1,.412,2.308,1.245,1.245,0,0,0,1.4,1.649h0c.984-.25,2.372-1.994,2.372-1.994l.262-4.851s1.1-8.736-7.2-10.329c-6.065-1.164-11.753-.157-14.623,3.008C-766.833,132.435-766.923,132.54-767.007,132.647Z" transform="translate(853.014 -113.709)" fill="#002726"/>
          <path id="Path_16262" data-name="Path 16262" d="M-740.623,150.926s3.327-4.469,5.764-.957c2.008,2.894-1.789,10.434-5.764,7.851Z" transform="translate(846.684 -118.451)" fill="#c97400"/>
          <path id="Path_16263" data-name="Path 16263" d="M-652.307,185.814s4.609,4.654,9.159,2.84c3.674-1.467,4.488-6.575,4.666-8.486.043-.458.048-.73.048-.73a6.553,6.553,0,0,0,.6-.394c.809-.591,2.143-1.791,2-3.2-.208-2.007-3.851-.889-3.851-.889s.552-2.425-.524-3.138c-1.06-.7-3.231.54-3.231.54s1.176-2.97-.434-3.687c-2.422-1.078-3.227,2.574-3.326,2.815.027-.265,1.179-11.459-.743-10.885-1.678.5-3.224,9.858-3.615,12.4-.062.4-.1.635-.1.635s-.135,0-.361,0c-1.079.03-4.253.316-4.833,2.526C-657.559,178.838-652.307,185.814-652.307,185.814Z" transform="translate(826.603 -121.32)" fill="#c97400"/>
          <path id="Path_16264" data-name="Path 16264" d="M-639.716,182.281a4,4,0,0,0-.4,2.48,1.18,1.18,0,0,0,.787.854,2.233,2.233,0,0,0,1.015.015,12.373,12.373,0,0,0,2.991-1.085c.043-.458.048-.73.048-.73a6.237,6.237,0,0,0,.6-.394.368.368,0,0,0-.205.049c-1.234.677-3.47,1.665-4.217,1.427a.437.437,0,0,1-.289-.34,4.53,4.53,0,0,1,1.136-3.221.373.373,0,0,0-.007-.5.374.374,0,0,0-.5-.049c-.752.555-2.937,1.913-4.024,1.567-.158-.051-.179-.124-.189-.163a1.269,1.269,0,0,1,.163-.758,9.293,9.293,0,0,1,1.337-1.981.371.371,0,0,0,.09-.209.369.369,0,0,0-.125-.324.379.379,0,0,0-.535.035,10.241,10.241,0,0,0-1.361,1.967,3.214,3.214,0,0,0-.318.943,1.3,1.3,0,0,0,.02.531.98.98,0,0,0,.688.679A4.8,4.8,0,0,0-639.716,182.281Z" transform="translate(823.44 -125.696)" fill="#002726"/>
          <path id="Path_16265" data-name="Path 16265" d="M-646.2,179.128a.37.37,0,0,1,.27.325,2.438,2.438,0,0,0,.332,1.171.433.433,0,0,0,.388.218,1.505,1.505,0,0,0,.622-.228,11.135,11.135,0,0,0,2.021-1.678.371.371,0,0,1-.09.208,9.262,9.262,0,0,0-1.336,1.981c-.076.049-.153.1-.227.138a2.879,2.879,0,0,1-.686.293,1.364,1.364,0,0,1-.271.04,1.175,1.175,0,0,1-1.031-.531,3.146,3.146,0,0,1-.477-1.557.369.369,0,0,1,.474-.385Z" transform="translate(824.148 -125.724)" fill="#002726"/>
          <path id="Path_16266" data-name="Path 16266" d="M-653.273,182.878a12.452,12.452,0,0,0,2.986-.08,4.247,4.247,0,0,0,2.085-.841,1.889,1.889,0,0,0,.667-1.421c.043-2.005-2.009-3.123-3.238-3.611-.062.4-.095.635-.095.635s-.135,0-.361,0c1.034.386,2.975,1.332,2.938,2.956a1.133,1.133,0,0,1-.41.871c-1,.886-3.584.833-4.492.738a.374.374,0,0,0-.415.335A.378.378,0,0,0-653.273,182.878Z" transform="translate(825.809 -125.241)" fill="#002726"/>
          <path id="Path_16267" data-name="Path 16267" d="M-643.462,191.451a.379.379,0,0,0,.291-.239.378.378,0,0,0-.22-.487,3.4,3.4,0,0,1-2.109-1.972c-.891-2.337.778-5.577.794-5.609a.378.378,0,0,0-.16-.51.378.378,0,0,0-.51.16c-.075.144-1.841,3.578-.831,6.228a4.123,4.123,0,0,0,2.548,2.41A.38.38,0,0,0-643.462,191.451Z" transform="translate(824.107 -126.6)" fill="#002726"/>
          <path id="Path_16268" data-name="Path 16268" d="M-720.326,186.633l7.877,6.841q1.889,1.764,3.791,3.5c1.262,1.163,2.524,2.321,3.792,3.461s2.531,2.274,3.8,3.386,2.533,2.2,3.787,3.239,2.5,2.058,3.668,2.927c.58.431,1.144.826,1.6,1.124l.3.195.125.078a.2.2,0,0,1,.045.039.807.807,0,0,1,.1.1c.04.053.034.1.086.137a.589.589,0,0,0,.39.06,5.971,5.971,0,0,0,2.209-.858,19.024,19.024,0,0,0,3.027-2.261,40.943,40.943,0,0,0,3.111-3.124,76.967,76.967,0,0,0,5.872-7.566c1.871-2.7,3.193-4.782,4.883-7.653a12.65,12.65,0,0,0,11.477,4.389,102.249,102.249,0,0,1-4.439,10.244,79.521,79.521,0,0,1-5.841,9.924,50.764,50.764,0,0,1-3.791,4.825,35.566,35.566,0,0,1-4.936,4.61,24.84,24.84,0,0,1-3.215,2.086A21.051,21.051,0,0,1-686.6,228a18.243,18.243,0,0,1-4.814.76,17.537,17.537,0,0,1-5.1-.65,18.555,18.555,0,0,1-2.359-.837l-.547-.247-.461-.225c-.16-.077-.29-.147-.434-.221s-.288-.149-.415-.219c-1.065-.576-1.978-1.132-2.851-1.685-1.734-1.1-3.294-2.2-4.821-3.3s-2.978-2.234-4.421-3.361-2.857-2.261-4.247-3.417-2.771-2.307-4.136-3.473-2.707-2.349-4.049-3.533-2.663-2.386-3.978-3.6l-1.966-1.826-.977-.927c-.33-.312-.644-.613-.99-.951Z" transform="translate(844.895 -127.57)" fill="#c1f5f6"/>
          <path id="Path_16269" data-name="Path 16269" d="M-679.822,225.553a.486.486,0,0,0,.254-.35,20.987,20.987,0,0,1,1.412-4.817.483.483,0,0,0-.211-.651.483.483,0,0,0-.651.212,21.493,21.493,0,0,0-1.5,5.1.484.484,0,0,0,.4.556A.488.488,0,0,0-679.822,225.553Z" transform="translate(832.267 -135.499)" fill="#002726"/>
          <path id="Path_16270" data-name="Path 16270" d="M-676.252,224.6a.536.536,0,0,0,.088-.059.485.485,0,0,0,.06-.682,8.879,8.879,0,0,1-1.682-3.22.484.484,0,0,0-.571-.378.484.484,0,0,0-.378.571,9.738,9.738,0,0,0,1.889,3.649A.484.484,0,0,0-676.252,224.6Z" transform="translate(831.839 -135.636)" fill="#002726"/>
          <path id="Path_16271" data-name="Path 16271" d="M-756.173,150.366a3.3,3.3,0,0,0,3.964,2.472,3.3,3.3,0,0,0,2.472-3.964A3.3,3.3,0,0,0-753.7,146.4,3.3,3.3,0,0,0-756.173,150.366Z" transform="translate(850.436 -117.898)" fill="#fc9100"/>
          <g id="Group_18977" data-name="Group 18977" transform="translate(89.045 30.534)">
            <path id="Path_16272" data-name="Path 16272" d="M-762.327,151.658a1.019,1.019,0,0,0,.166.048l1.992.767.335-.88-2.22-.872.013-.025.012-.128.425-1.139-.882-.33-.426,1.139a1.014,1.014,0,0,0,.008.889A1.048,1.048,0,0,0-762.327,151.658Z" transform="translate(763.01 -149.1)" fill="#002726"/>
          </g>
          <path id="Path_16273" data-name="Path 16273" d="M-756.615,147.367a1.149,1.149,0,0,0,1.379.859,1.147,1.147,0,0,0,.859-1.378,1.148,1.148,0,0,0-1.378-.86A1.15,1.15,0,0,0-756.615,147.367Z" transform="translate(850.528 -117.812)" fill="#002726"/>
          <g id="Group_18978" data-name="Group 18978" transform="translate(84.004 28.426)">
            <path id="Path_16274" data-name="Path 16274" d="M-768.518,152.84a3.3,3.3,0,0,0,2.472-3.964,3.3,3.3,0,0,0-3.394-2.545l-.1,3.289-.066,2.135-.035,1.136A3.271,3.271,0,0,0-768.518,152.84Z" transform="translate(769.642 -146.327)" fill="#fc9100"/>
          </g>
          <path id="Path_16275" data-name="Path 16275" d="M-767.571,147.367a1.148,1.148,0,0,0,1.378.859,1.149,1.149,0,0,0,.86-1.378,1.148,1.148,0,0,0-1.378-.86A1.15,1.15,0,0,0-767.571,147.367Z" transform="translate(853.157 -117.812)" fill="#002726"/>
          <path id="Path_16276" data-name="Path 16276" d="M-653.952,197.182s-11.7,40.949-30.546,38.36-21.847-3.623-21.847-3.623l3.106-12.632L-684.6,225.4l13.564-3.727,10.665-17.809Z" transform="translate(838.461 -130.101)" fill="#c1f5f6"/>
          <path id="Path_16277" data-name="Path 16277" d="M-703.329,242.754a.474.474,0,0,1-.271-.086c-5.2-3.64-5.09-3.447-5.183-3.525a.474.474,0,0,1-.062-.669.475.475,0,0,1,.669-.062c.093.077-.047-.14,5.121,3.477a.475.475,0,0,1,.117.661A.475.475,0,0,1-703.329,242.754Z" transform="translate(839.087 -139.967)" fill="#002726"/>
          <path id="Path_16278" data-name="Path 16278" d="M-703.313,299.08a.5.5,0,0,1-.126,0,.475.475,0,0,1-.414-.529c4.022-33.176-.992-56.237-1.058-56.558a.476.476,0,0,1,.369-.562.474.474,0,0,1,.561.369c.067.322,5.112,23.537,1.071,56.865A.477.477,0,0,1-703.313,299.08Z" transform="translate(838.119 -140.715)" fill="#002726"/>
        </g>
      </g>
      <rect id="Rectangle_4405" data-name="Rectangle 4405" width="199.21" height="3.265" transform="translate(-901.615 256.95)" fill="#7cecec"/>
      <rect id="Rectangle_4406" data-name="Rectangle 4406" width="102.217" height="3.265" transform="translate(-901.615 256.951)" fill="#ff6475"/>
    </g>
  </g>
</svg>
