<svg xmlns="http://www.w3.org/2000/svg" width="536.001" height="342.915" viewBox="0 0 536.001 342.915">
    <defs>
        <style>
            .cls-2{fill:#e5f0fb}.cls-3{fill:#b2d2f3}.cls-4{fill:#7fb4ec}.cls-5{fill:#4c7ad9}.cls-6{fill:#fff}.cls-8{fill:#ffd490}.cls-9{fill:#c97400}.cls-10{fill:#fdd399}.cls-11{fill:#e7f3ff}.cls-12{fill:#87c5ff}.cls-13{fill:#002726}
        </style>
    </defs>
    <g id="SAT" transform="translate(-11044.5 15153.826)">
        <g id="Group_19907" transform="translate(11044.5 -15153.826)">
            <g id="Group_19058" transform="translate(1.855 1.855)">
                <g id="Group_19052" transform="translate(2.591 2.591)">
                    <path id="Rectangle_4593" fill="#332938" d="M10.72 0H436.6a10.72 10.72 0 0 1 10.72 10.72v27.922H0V10.72A10.72 10.72 0 0 1 10.72 0z"/>
                </g>
                <g id="Group_19054">
                    <g id="Group_19053">
                        <path id="Path_16411" d="M1100.138 1415.835H677.714a15.059 15.059 0 0 1-15.041-15.041v-296.521a15.058 15.058 0 0 1 15.041-15.041h422.424a15.059 15.059 0 0 1 15.041 15.041v296.521a15.059 15.059 0 0 1-15.041 15.041z" class="cls-2" transform="translate(-662.673 -1089.232)"/>
                        <path id="Rectangle_4594" d="M0 0h353.6v266.652a12.793 12.793 0 0 1-12.793 12.793H0V0z" class="cls-3" transform="translate(99.714 46.954)"/>
                        <path id="Rectangle_4595" d="M14 0h421.915a14 14 0 0 1 14 14v32.954H0V14A14 14 0 0 1 14 0z" class="cls-4" transform="translate(1.296)"/>
                    </g>
                </g>
                <g id="Group_19055" transform="translate(397.858 17.998)">
                    <path id="Path_16412" d="M1019.925 1110.758a5.9 5.9 0 1 1-5.9-5.9 5.9 5.9 0 0 1 5.9 5.9z" class="cls-2" transform="translate(-1008.128 -1104.859)"/>
                </g>
                <g id="Group_19056" transform="translate(373.917 17.998)">
                    <path id="Path_16413" d="M999.136 1110.758a5.9 5.9 0 1 1-5.9-5.9 5.9 5.9 0 0 1 5.9 5.9z" class="cls-2" transform="translate(-987.34 -1104.859)"/>
                </g>
                <g id="Group_19057" transform="translate(420.798 17.998)">
                    <path id="Path_16414" d="M1039.842 1110.758a5.9 5.9 0 1 1-5.9-5.9 5.9 5.9 0 0 1 5.9 5.9z" class="cls-5" transform="translate(-1028.046 -1104.859)"/>
                </g>
            </g>
            <path id="Rectangle_4596" d="M0 0H351.574V191.243H0z" class="cls-6" transform="translate(101.569 48.809)"/>
            <path id="Path_16415" d="M760.574 1254.386h-79.953a7.78 7.78 0 0 1-7.78-7.781 7.779 7.779 0 0 1 7.78-7.78h79.953z" class="cls-5" transform="translate(-659.275 -1064.684)"/>
            <g id="Group_19059">
                <path id="Path_16416" d="M1100.383 1417.933H677.958a16.915 16.915 0 0 1-16.9-16.895v-296.522a16.916 16.916 0 0 1 16.9-16.9h422.424a16.915 16.915 0 0 1 16.9 16.9v296.522a16.914 16.914 0 0 1-16.899 16.895zm-422.424-326.6a13.2 13.2 0 0 0-13.187 13.184v296.522a13.2 13.2 0 0 0 13.187 13.185h422.424a13.2 13.2 0 0 0 13.186-13.185v-296.523a13.2 13.2 0 0 0-13.186-13.184z" class="cls-4" transform="translate(-661.062 -1087.62)"/>
            </g>
            <g id="Group_19061" transform="translate(144.005 257.772)">
                <path id="Path_16417" fill="#ea576f" d="M888.8 1354.686h-92.553a10.148 10.148 0 0 1-10.147-10.148 10.147 10.147 0 0 1 10.147-10.148H888.8a10.148 10.148 0 0 1 10.148 10.148 10.148 10.148 0 0 1-10.148 10.148z" transform="translate(-786.1 -1307.96)"/>
                <g id="Group_19060">
                    <path id="Path_16418" d="M974.9 1315.975H788.366a2.268 2.268 0 0 1-2.267-2.268 2.266 2.266 0 0 1 2.267-2.266H974.9a2.266 2.266 0 0 1 2.266 2.266 2.267 2.267 0 0 1-2.266 2.268z" class="cls-6" transform="translate(-786.1 -1311.441)"/>
                    <path id="Path_16419" d="M905.651 1325.459H788.366a2.267 2.267 0 0 1-2.267-2.268 2.267 2.267 0 0 1 2.267-2.266h117.285a2.267 2.267 0 0 1 2.268 2.266 2.268 2.268 0 0 1-2.268 2.268z" class="cls-6" transform="translate(-786.1 -1310.002)"/>
                </g>
            </g>
            <g id="Group_19062" transform="translate(23.105 134.675)">
                <path id="Path_16420" d="M716.7 1209.091h-33.309a2.268 2.268 0 0 1-2.268-2.268 2.266 2.266 0 0 1 2.268-2.267H716.7a2.267 2.267 0 0 1 2.268 2.267 2.268 2.268 0 0 1-2.268 2.268z" class="cls-4" transform="translate(-681.124 -1204.557)"/>
                <path id="Path_16421" d="M738.965 1222.109h-55.574a2.267 2.267 0 0 1-2.268-2.267 2.268 2.268 0 0 1 2.268-2.267h55.574a2.268 2.268 0 0 1 2.268 2.267 2.267 2.267 0 0 1-2.268 2.267z" class="cls-4" transform="translate(-681.124 -1202.582)"/>
                <path id="Path_16422" d="M723.62 1235.128h-40.229a2.266 2.266 0 0 1-2.268-2.266 2.267 2.267 0 0 1 2.268-2.268h40.229a2.268 2.268 0 0 1 2.268 2.268 2.267 2.267 0 0 1-2.268 2.266z" class="cls-4" transform="translate(-681.124 -1200.608)"/>
                <path id="Path_16423" d="M714.9 1248.147h-31.5a2.267 2.267 0 0 1-2.268-2.267 2.267 2.267 0 0 1 2.268-2.267h31.5a2.266 2.266 0 0 1 2.266 2.267 2.267 2.267 0 0 1-2.266 2.267z" class="cls-4" transform="translate(-681.124 -1198.633)"/>
                <path id="Path_16424" d="M727.231 1261.165h-43.84a2.266 2.266 0 0 1-2.268-2.266 2.268 2.268 0 0 1 2.268-2.268h43.839a2.269 2.269 0 0 1 2.268 2.268 2.267 2.267 0 0 1-2.267 2.266z" class="cls-4" transform="translate(-681.124 -1196.657)"/>
                <path id="Path_16425" d="M716.087 1274.184h-32.7a2.266 2.266 0 0 1-2.268-2.266 2.267 2.267 0 0 1 2.268-2.268h32.7a2.267 2.267 0 0 1 2.267 2.268 2.266 2.266 0 0 1-2.267 2.266z" class="cls-4" transform="translate(-681.124 -1194.683)"/>
                <path id="Path_16426" d="M726.316 1287.2h-42.925a2.267 2.267 0 0 1-2.268-2.267 2.267 2.267 0 0 1 2.268-2.267h42.925a2.266 2.266 0 0 1 2.267 2.267 2.267 2.267 0 0 1-2.267 2.267z" class="cls-4" transform="translate(-681.124 -1192.708)"/>
                <path id="Path_16427" d="M709.2 1300.221h-25.81a2.267 2.267 0 0 1-2.268-2.267 2.267 2.267 0 0 1 2.268-2.268h25.81a2.267 2.267 0 0 1 2.267 2.268 2.267 2.267 0 0 1-2.267 2.267z" class="cls-4" transform="translate(-681.124 -1190.733)"/>
                <path id="Path_16428" d="M738.965 1313.24h-55.574a2.267 2.267 0 0 1-2.268-2.267 2.267 2.267 0 0 1 2.268-2.268h55.574a2.267 2.267 0 0 1 2.268 2.268 2.267 2.267 0 0 1-2.268 2.267z" class="cls-4" transform="translate(-681.124 -1188.758)"/>
            </g>
            <g id="Group_19065" transform="translate(129.714 70.667)">
                <g id="Group_19064">
                    <path id="Rectangle_4635" d="M0 0H9.004V9.004H0z" class="cls-2"/>
                    <path id="Rectangle_4636" d="M0 0H9.004V9.004H0z" class="cls-2" transform="translate(0 19.331)"/>
                    <path id="Rectangle_4637" d="M0 0H9.004V9.004H0z" class="cls-2" transform="translate(0 38.662)"/>
                    <path id="Rectangle_4638" d="M0 0H9.004V9.004H0z" class="cls-2" transform="translate(0 57.992)"/>
                    <path id="Rectangle_4639" d="M0 0H9.004V9.004H0z" class="cls-2" transform="translate(0 77.323)"/>
                    <path id="Rectangle_4640" d="M0 0H9.004V9.004H0z" class="cls-2" transform="translate(0 96.654)"/>
                    <path id="Rectangle_4641" d="M0 0H46.792V9.004H0z" class="cls-4" transform="translate(82.744)"/>
                    <path id="Rectangle_4642" d="M0 0H46.792V9.004H0z" class="cls-4" transform="translate(57.12 19.331)"/>
                    <path id="Rectangle_4643" d="M0 0H18.197V9.004H0z" class="cls-4" transform="translate(82.744 38.662)"/>
                    <path id="Rectangle_4647" d="M0 0H46.792V9.004H0z" class="cls-5" transform="translate(139.191)"/>
                    <path id="Rectangle_4649" d="M0 0H56.465V9.004H0z" class="cls-3" transform="translate(110.225 38.662)"/>
                    <path id="Rectangle_4650" d="M0 0H41.602V9.004H0z" class="cls-5" transform="translate(264.005 38.662)"/>
                    <path id="Rectangle_4653" d="M0 0H82.832V9.004H0z" class="cls-5" transform="translate(173.375 38.662)"/>
                    <path id="Rectangle_4654" d="M0 0H31.195V9.004H0z" class="cls-4" transform="translate(82.744 57.992)"/>
                    <path id="Rectangle_4655" d="M0 0H49.409V9.004H0z" class="cls-3" transform="translate(192.668 57.992)"/>
                    <path id="Rectangle_4656" d="M0 0H59.418V9.004H0z" class="cls-3" transform="translate(123.223 57.992)"/>
                    <path id="Rectangle_4657" d="M0 0H62.389V9.004H0z" class="cls-4" transform="translate(82.744 79.396)"/>
                    <path id="Rectangle_4658" d="M0 0H90.649V9.004H0z" class="cls-4" transform="translate(82.744 96.654)"/>
                    <path id="Rectangle_4660" d="M0 0H59.418V9.004H0z" class="cls-8" transform="translate(182.677 96.654)"/>
                    <path id="Rectangle_4661" d="M0 0H31.195V9.004H0z" class="cls-8" transform="translate(158.502 79.396)"/>
                </g>
            </g>
        </g>
        <g id="Group_19894" transform="translate(11288.81 -15118.494)">
            <path id="Path_17056" d="M1420.253 526.062s-4.869-48.666-14.983-49.019-1.612 17.158-6.908 19-2.417 25.738-2.417 25.738z" class="cls-9" transform="translate(-1188.97 -477.038)"/>
            <g id="Group_19881" transform="translate(139.591 35.64)">
                <g id="Group_19880">
                    <path id="Path_17057" d="M1313.834 636.463a26.036 26.036 0 0 0 13.107-18.842l8.251-53.793-30.567-4.688-7.481 48.775-36.869-7.478a15.462 15.462 0 0 0-18.227 12.081 15.462 15.462 0 0 0 12.08 18.227l41.848 8.487a26.218 26.218 0 0 0 17.858-2.769z" class="cls-10" transform="translate(-1241.735 -559.139)"/>
                </g>
            </g>
            <path id="Path_17058" d="M1438.581 1048.181l39.673-1.341 26.977-1.063v44.783l-26.977 1.063-39.673 1.341z" class="cls-9" transform="translate(-1213.54 -798.89)"/>
            <g id="Group_19882" transform="translate(264.713 246.887)">
                <path id="Path_17059" d="M1529.973 1046.84l26.978-1.063v60.7s-13.719-1.5-16.192-15.358l-10.786.508z" class="cls-11" transform="translate(-1529.973 -1045.777)"/>
            </g>
            <g id="Group_19883" transform="translate(142.222 128.974)">
                <path id="Path_17061" d="M1359.123 945.774l-68.437.268a42.425 42.425 0 0 1-30.349-12.482 43.685 43.685 0 0 1-12.541-30.983V774.148h22.83a30.626 30.626 0 0 1 30.626 30.626v87.77l57.662-.226z" class="cls-12" transform="translate(-1247.796 -774.148)"/>
            </g>
            <path id="Path_17062" d="M1034.305 1032.061l1.341 39.673 1.063 26.978h-44.782l-1.063-26.978-1.34-39.673z" class="cls-9" transform="translate(-959.416 -791.128)"/>
            <g id="Group_19884" transform="translate(16.597 280.605)">
                <path id="Path_17063" d="M1018.035 1123.453l1.064 26.978H958.4s1.495-13.72 15.358-16.192l-.508-10.786z" class="cls-11" transform="translate(-958.402 -1123.453)"/>
            </g>
            <g id="Group_19885" transform="translate(23.312 158.114)">
                <path id="Path_17065" d="M974.137 952.6l-.267-68.437a42.431 42.431 0 0 1 12.481-30.35 43.689 43.689 0 0 1 30.984-12.541h128.429v22.83a30.626 30.626 0 0 1-30.626 30.626h-87.77l.225 57.662z" class="cls-12" transform="translate(-973.869 -841.276)"/>
            </g>
            <g id="Group_19891" transform="translate(123.427 31.715)">
                <g id="Group_19886" transform="translate(20.836 14.916)">
                    <ellipse id="Ellipse_225" cx="3.854" cy="4.209" class="cls-9" rx="3.854" ry="4.209"/>
                </g>
                <g id="Group_19887" transform="translate(2.007)">
                    <ellipse id="Ellipse_226" cx="13.369" cy="12.76" class="cls-13" rx="13.369" ry="12.76"/>
                </g>
                <g id="Group_19888" transform="translate(9.017 21.952)">
                    <path id="Rectangle_5493" d="M0 0H12.719V19.877H0z" class="cls-9" transform="rotate(180 6.36 9.938)"/>
                </g>
                <g id="Group_19889" transform="translate(2.809 6.112)">
                    <path id="Path_17066" d="M1229.431 589.01v-15.3a9.384 9.384 0 0 0-9.229-9.532 9.384 9.384 0 0 0-9.229 9.532v9.233c-.002 11.257 18.458 6.067 18.458 6.067z" class="cls-9" transform="translate(-1210.971 -564.176)"/>
                </g>
                <path id="Rectangle_5494" d="M0 0H3.743V8.142H0z" class="cls-13" transform="rotate(180 3.163 8.655)"/>
                <path id="Path_17067" d="M1221.932 583.836h11.279l4.821-7.734.354-10.371-17.272-2.908a4.921 4.921 0 0 0-4.787 5.045v10.059a5.763 5.763 0 0 0 5.605 5.909z" class="cls-13" transform="translate(-1211.192 -557.299)"/>
                <g id="Group_19890" transform="translate(0 14.916)">
                    <ellipse id="Ellipse_227" cx="3.854" cy="4.209" class="cls-9" rx="3.854" ry="4.209"/>
                </g>
            </g>
            <path id="Path_17068" d="M946.521 608.536l-12.075-19.759a4.032 4.032 0 0 0-5.543-1.338 4.033 4.033 0 0 0-1.338 5.544l6.864 11.233a14.511 14.511 0 0 0-7.032 2.09c-7.676 4.691-9.535 15.637-4.15 24.448s15.972 12.15 23.649 7.459 9.535-15.637 4.15-24.447a21.065 21.065 0 0 0-4.525-5.23z" class="cls-9" transform="translate(-920.167 -539.18)"/>
            <path id="Path_17069" d="M1238.638 736.359h-100.574l-4.361-38.509a48.377 48.377 0 1 1 95.313-16.632z" class="cls-10" transform="translate(-1040.595 -569.908)"/>
            <g id="Group_19893" transform="translate(6.487 77.819)">
                <g id="Group_19892">
                    <path id="Path_17070" d="M1007.5 738.315a31.117 31.117 0 0 1-3.2.227 31.613 31.613 0 0 1-22.967-9.318l-46.223-46.651 26.51-26.267 41.912 42.3 30.682-33.461a18.659 18.659 0 0 1 26.363-1.145 18.659 18.659 0 0 1 1.143 26.364l-34.82 37.981a31.643 31.643 0 0 1-19.4 9.97z" class="cls-10" transform="translate(-935.11 -656.306)"/>
                </g>
            </g>
        </g>
        <g id="Group_19900" transform="translate(11529.804 -15016.201)">
            <path id="Rectangle_5496" d="M0 0H8.069V8.069H0z" class="cls-2"/>
        </g>
    </g>
</svg>
